<?xml version="1.0" standalone="no"?>
<!DOCTYPE svg PUBLIC "-//W3C//DTD SVG 20010904//EN"
 "http://www.w3.org/TR/2001/REC-SVG-20010904/DTD/svg10.dtd">
<svg version="1.0" xmlns="http://www.w3.org/2000/svg"
 width="551.000000pt" height="551.000000pt" viewBox="0 0 551.000000 551.000000"
 preserveAspectRatio="xMidYMid meet">
<metadata>
Created by potrace 1.11, written by Peter Selinger 2001-2013
</metadata>
<g transform="translate(0.000000,551.000000) scale(0.100000,-0.100000)"
fill="#000000" stroke="none">
<path d="M0 2755 l0 -2755 2750 0 2750 0 0 2755 0 2755 -2750 0 -2750 0 0
-2755z m3842 2177 c215 -58 416 -180 551 -337 l51 -60 -66 62 c-74 68 -160
114 -258 139 -51 13 -93 15 -190 11 -136 -6 -88 6 -1040 -254 l-285 -78 -6
-1655 c-6 -1768 -3 -1674 -53 -1866 -38 -145 -124 -304 -207 -379 -112 -101
-221 -140 -368 -132 -111 6 -184 28 -316 94 -485 244 -821 755 -884 1343 -17
163 -24 327 -13 334 5 3 120 -43 253 -103 l244 -110 7 -78 c22 -242 55 -368
130 -497 52 -90 154 -191 237 -235 147 -78 253 -25 321 157 50 132 50 140 50
1764 l0 1517 53 15 c28 9 295 81 592 161 297 80 572 155 610 167 132 39 203
48 360 44 109 -3 171 -10 227 -24z m117 -851 c77 -40 139 -135 177 -271 15
-53 19 -101 19 -255 0 -166 -3 -201 -23 -278 -29 -107 -70 -210 -116 -286 -48
-78 -158 -182 -234 -220 -52 -26 -565 -231 -578 -231 -3 0 -3 77 -2 171 l3
171 155 62 c202 80 252 108 326 182 131 130 209 320 234 569 13 130 3 286 -26
388 -7 23 17 22 65 -2z"/>
</g>
</svg>
